<svg width="33" height="32" viewBox="0 0 33 32" fill="none" xmlns="http://www.w3.org/2000/svg">
<g id="Icon">
<path id="Union" fill-rule="evenodd" clip-rule="evenodd" d="M12.48 0.00318441C9.3816 0.15922 6.32457 1.41388 4.07319 3.56335C1.80271 5.69053 0.341069 8.65522 0.054473 11.7505C-0.00763949 12.5359 0.000846253 13.3238 0.00933353 14.1119C0.0143353 14.5763 0.0193375 15.0408 0.00989128 15.5049C0.496482 15.4911 0.984472 15.4984 1.47259 15.5057C2.45708 15.5204 3.44207 15.535 4.41711 15.3775C7.75755 14.9126 10.9037 13.1134 12.9609 10.4321C14.5435 8.43868 15.4829 5.95484 15.6326 3.41368C15.6467 2.91051 15.6439 2.40671 15.6412 1.90284C15.6377 1.2683 15.6343 0.633657 15.6644 0C14.9069 0.00682473 14.1477 0.00552359 13.3892 0.00422364C13.086 0.00370393 12.7829 0.00318441 12.48 0.00318441ZM18.3515 0.00318507C17.7828 0.00477705 17.2145 0.00636792 16.6461 0C16.6587 0.454464 16.6581 0.9102 16.6575 1.36613C16.6559 2.52351 16.6543 3.68214 16.869 4.82437C17.2671 7.11715 18.3211 9.2921 19.8719 11.0244C20.5651 11.9424 21.5094 12.6186 22.4346 13.281L22.4895 13.3204C24.5339 14.6515 26.9349 15.4412 29.3774 15.5081C30.3699 15.5017 31.3592 15.5049 32.3516 15.508L32.3548 15.5081C32.3279 14.9552 32.3282 14.4009 32.3286 13.8467C32.3291 12.958 32.3297 12.0694 32.2179 11.1868C31.8039 8.09794 30.1894 5.2065 27.8329 3.18441C25.6962 1.29605 22.8971 0.206986 20.0598 0.00636881C19.4897 0 18.9204 0.00159265 18.3515 0.00318507ZM0.0117712 16.4187C0.444426 16.4432 0.877665 16.438 1.31074 16.4327H1.31078C1.88812 16.4257 2.46517 16.4187 3.04014 16.4824C7.34864 16.5747 11.5298 18.9949 13.762 22.6792C15.0422 24.7427 15.73 27.1883 15.6408 29.618C15.6398 29.8668 15.6404 30.1153 15.641 30.3635V30.3638C15.6422 30.9099 15.6434 31.4549 15.6281 32C15.1667 31.9862 14.7039 31.9873 14.241 31.9883H14.241C13.1001 31.991 11.9582 31.9936 10.8324 31.7739C7.3168 31.1816 4.08463 29.0894 2.13895 26.1025C0.664574 23.9307 -0.0710233 21.2781 0.00540241 18.6573C0.00540241 17.909 0.00540241 17.1638 0.0117712 16.4187ZM31.5975 16.4325C30.0506 16.4255 28.4917 16.4185 26.9744 16.756C24.9809 17.1828 23.1021 18.0967 21.5035 19.3577C18.921 21.4467 17.125 24.5387 16.762 27.8601C16.639 28.942 16.6485 30.0319 16.6581 31.1203C16.6607 31.4125 16.6632 31.7047 16.6632 31.9966C17.1622 31.9817 17.6626 31.9839 18.1625 31.986C18.4123 31.9871 18.6621 31.9881 18.9114 31.9871C21.252 32.0125 23.6021 31.4521 25.6496 30.3121C28.9391 28.5001 31.3848 25.2011 32.0885 21.5072C32.3338 20.2993 32.3289 19.0708 32.3239 17.8444C32.3221 17.3993 32.3203 16.9544 32.3305 16.5108L32.2541 16.4344C32.0356 16.4344 31.8167 16.4334 31.5975 16.4325Z" fill="url(#paint0_linear_83_282)"/>
</g>
<defs>
<linearGradient id="paint0_linear_83_282" x1="25.5" y1="-3.99999" x2="12.6707" y2="27.4153" gradientUnits="userSpaceOnUse">
<stop stop-color="#ED6CCE"/>
<stop offset="0.5" stop-color="#9D44F7"/>
<stop offset="1" stop-color="#70E3FB"/>
</linearGradient>
</defs>
</svg>
